<svg xmlns="http://www.w3.org/2000/svg" xmlns:xlink="http://www.w3.org/1999/xlink" width="402" height="402" version="1.1" viewBox="0 0 402 402"><title>empty-app</title><description>Created with Sketch.</description><g id="Page-1" fill="none" fill-rule="evenodd" stroke="none" stroke-width="1"><g id="empty-app" stroke="#000" transform="translate(1.000000, 0.000000)"><g id="Line"><path id="Shape" d="M200,26.9941463 C295.78125,26.9941463 373.4375,104.768585 373.4375,200.69561 C373.4375,296.622634 295.78125,374.397073 200,374.397073 C104.21875,374.397073 26.5625,296.622634 26.5625,200.69561 C26.5625,104.768585 104.21875,26.9941463 200,26.9941463 L200,26.9941463 Z"/><path id="Shape" d="M200,93.1102439 C259.335938,93.1102439 307.421875,141.269366 307.421875,200.69561 C307.421875,260.121854 259.335938,308.280976 200,308.280976 C140.664062,308.280976 92.578125,260.121854 92.578125,200.69561 C92.578125,141.269366 140.664062,93.1102439 200,93.1102439 L200,93.1102439 Z"/><path id="Line-11" stroke-linecap="square" d="M0.1953125,0.58682926 L399.804688,400.804367"/><path id="Line-12" stroke-linecap="square" d="M0.267624436,400.731968 L399.876976,0.514407269"/><g id="Group" stroke-linecap="square" transform="translate(0.000000, 25.820488)"><path id="Line-2" d="M0.1953125,98.7829268 L400.105303,98.7829268"/><path id="Line-3" d="M0.1953125,174.679512 L400.105303,174.679512"/><path id="Line-4" d="M0.1953125,250.576098 L400.105303,250.576098"/><path id="Line-5" d="M0.1953125,348.772195 L400.105303,348.772195"/><path id="Line" d="M0.1953125,0.586829268 L400.105303,0.586829268"/></g><g id="Group" stroke-linecap="square" transform="translate(200.179512, 200.500000) rotate(-270.000000) translate(-200.179512, -200.500000) translate(0.179512, 26.000000)"><path id="Line-10" d="M0.1953125,0.586829268 L400.105303,0.586829268"/><path id="Line-9" d="M0.1953125,98.7829268 L400.105303,98.7829268"/><path id="Line-8" d="M0.1953125,174.679512 L400.105303,174.679512"/><path id="Line-7" d="M0.1953125,250.576098 L400.105303,250.576098"/><path id="Line-6" d="M0.1953125,348.772195 L400.105303,348.772195"/></g></g></g></g></svg>